<svg data-v-fde0c5aa="" xmlns="http://www.w3.org/2000/svg" viewBox="0 0 300 300" class="iconAbove"><!----><defs data-v-fde0c5aa=""><!----></defs><!----><defs data-v-fde0c5aa=""><!----></defs><g data-v-fde0c5aa="" id="d8daf82f-a0bf-496c-86af-03d2a2d44098" fill="#000000" transform="matrix(1.8448874289477823,0,0,1.8448874289477823,19.11445399891663,164.76527365531723)"><path d="M0.48 9.17C0.48 11.98 2.70 14.15 5.57 14.15C6.96 14.15 8.37 13.52 9.37 12.54L8.39 11.45C7.64 12.17 6.64 12.61 5.66 12.61C3.70 12.61 2.16 11.09 2.16 9.16C2.16 7.22 3.70 5.71 5.66 5.71C6.65 5.71 7.67 6.19 8.39 6.96L9.35 5.75C8.40 4.82 7.01 4.24 5.63 4.24C2.73 4.24 0.48 6.38 0.48 9.17ZM10.81 4.51C10.81 5.07 11.21 5.47 11.75 5.47C12.28 5.47 12.68 5.07 12.68 4.51C12.68 3.93 12.28 3.53 11.75 3.53C11.21 3.53 10.81 3.93 10.81 4.51ZM10.95 14.08L12.54 14.08L12.54 6.64L10.95 6.64ZM13.75 6.64L16.63 14.08L18.30 14.08L21.15 6.64L19.54 6.64L17.50 12.50L15.43 6.64ZM22.13 4.51C22.13 5.07 22.54 5.47 23.07 5.47C23.60 5.47 24.01 5.07 24.01 4.51C24.01 3.93 23.60 3.53 23.07 3.53C22.54 3.53 22.13 3.93 22.13 4.51ZM22.27 14.08L23.87 14.08L23.87 6.64L22.27 6.64ZM26.32 14.08L27.93 14.08L27.93 3.70L26.32 3.70ZM30.24 4.51C30.24 5.07 30.65 5.47 31.18 5.47C31.71 5.47 32.12 5.07 32.12 4.51C32.12 3.93 31.71 3.53 31.18 3.53C30.65 3.53 30.24 3.93 30.24 4.51ZM30.38 14.08L31.98 14.08L31.98 6.64L30.38 6.64ZM33.80 14.08L40.17 14.10L40.17 12.78L35.78 12.77L40.04 7.73L40.04 6.65L33.92 6.64L33.92 7.95L38.05 7.95L33.80 12.99ZM41.26 11.84C41.26 13.16 42.27 14.15 43.88 14.15C44.95 14.15 45.81 13.83 46.34 13.17L46.34 14.08L47.92 14.08L47.91 9.20C47.89 7.56 46.82 6.58 44.90 6.58C43.48 6.58 42.73 6.90 41.69 7.52L42.35 8.64C43.09 8.13 43.83 7.88 44.55 7.88C45.72 7.88 46.33 8.44 46.33 9.38L46.33 9.60L44.07 9.60C42.28 9.62 41.26 10.49 41.26 11.84ZM42.77 11.77C42.77 11.06 43.26 10.78 44.31 10.78L46.33 10.78L46.33 11.47C46.24 12.28 45.36 12.88 44.21 12.88C43.32 12.88 42.77 12.45 42.77 11.77ZM49.32 8.12L50.37 8.12L50.37 11.98C50.37 13.51 51.34 14.15 52.46 14.15C53.09 14.15 53.70 13.96 54.29 13.61L53.89 12.38C53.45 12.59 53.10 12.70 52.77 12.70C52.26 12.70 51.97 12.46 51.97 11.69L51.97 8.12L54.17 8.12L54.17 6.92L51.97 6.92L51.97 4.87L50.37 4.87L50.37 6.92L49.32 6.92ZM55.64 4.51C55.64 5.07 56.04 5.47 56.57 5.47C57.11 5.47 57.51 5.07 57.51 4.51C57.51 3.93 57.11 3.53 56.57 3.53C56.04 3.53 55.64 3.93 55.64 4.51ZM55.78 14.08L57.37 14.08L57.37 6.64L55.78 6.64ZM59.05 10.36C59.05 12.60 60.63 14.14 62.94 14.14C65.24 14.14 66.82 12.60 66.82 10.36C66.82 8.11 65.24 6.58 62.94 6.58C60.63 6.58 59.05 8.11 59.05 10.36ZM60.66 10.37C60.66 8.95 61.60 7.97 62.94 7.97C64.27 7.97 65.21 8.95 65.21 10.37C65.21 11.82 64.27 12.80 62.94 12.80C61.60 12.80 60.66 11.82 60.66 10.37ZM68.50 14.08L70.11 14.08L70.11 10.12C70.22 8.96 70.99 8.11 72.23 8.09C73.35 8.09 74.02 8.78 74.02 9.90L74.02 14.08L75.63 14.08L75.63 9.45C75.63 7.67 74.59 6.58 72.86 6.58C71.60 6.58 70.64 7.03 70.11 8.06L70.11 6.64L68.50 6.64ZM81.49 14.08L83.05 14.08L83.05 6.76L86.14 13.06L87.22 13.06L90.31 6.76L90.33 14.08L91.85 14.08L91.85 4.28L89.91 4.28L86.69 10.79L83.45 4.28L81.49 4.28ZM93.73 11.84C93.73 13.16 94.74 14.15 96.35 14.15C97.43 14.15 98.28 13.83 98.81 13.17L98.81 14.08L100.39 14.08L100.38 9.20C100.37 7.56 99.29 6.58 97.37 6.58C95.96 6.58 95.20 6.90 94.16 7.52L94.82 8.64C95.56 8.13 96.31 7.88 97.02 7.88C98.20 7.88 98.80 8.44 98.80 9.38L98.80 9.60L96.54 9.60C94.75 9.62 93.73 10.49 93.73 11.84ZM95.24 11.77C95.24 11.06 95.73 10.78 96.78 10.78L98.80 10.78L98.80 11.47C98.71 12.28 97.83 12.88 96.68 12.88C95.79 12.88 95.24 12.45 95.24 11.77ZM102.55 14.08L104.16 14.08L104.16 10.12C104.27 8.96 105.04 8.11 106.27 8.09C107.39 8.09 108.07 8.78 108.07 9.90L108.07 14.08L109.68 14.08L109.68 9.45C109.68 7.67 108.64 6.58 106.90 6.58C105.64 6.58 104.69 7.03 104.16 8.06L104.16 6.64L102.55 6.64ZM111.22 11.84C111.22 13.16 112.22 14.15 113.83 14.15C114.91 14.15 115.77 13.83 116.30 13.17L116.30 14.08L117.88 14.08L117.87 9.20C117.85 7.56 116.77 6.58 114.86 6.58C113.44 6.58 112.69 6.90 111.65 7.52L112.31 8.64C113.05 8.13 113.79 7.88 114.51 7.88C115.68 7.88 116.28 8.44 116.28 9.38L116.28 9.60L114.03 9.60C112.24 9.62 111.22 10.49 111.22 11.84ZM112.73 11.77C112.73 11.06 113.22 10.78 114.27 10.78L116.28 10.78L116.28 11.47C116.20 12.28 115.32 12.88 114.17 12.88C113.27 12.88 112.73 12.45 112.73 11.77ZM119.34 10.12C119.34 12.26 120.68 13.72 122.70 13.72C123.82 13.72 124.66 13.27 125.16 12.46L125.16 13.40C125.16 14.69 124.24 15.51 122.82 15.51C121.91 15.51 121.18 15.22 120.48 14.70L119.80 15.86C120.71 16.48 121.73 16.84 122.89 16.84C125.23 16.84 126.76 15.50 126.76 13.36L126.76 6.64L125.16 6.64L125.16 7.84C124.64 7.03 123.79 6.57 122.64 6.58C120.67 6.59 119.34 8.02 119.34 10.12ZM120.85 10.16C120.86 8.83 121.74 7.88 123.02 7.88C124.28 7.88 125.16 8.82 125.16 10.16C125.16 11.51 124.28 12.46 123.02 12.46C121.73 12.46 120.86 11.51 120.85 10.16ZM128.30 10.37C128.30 12.61 129.81 14.14 132.10 14.14C133.39 14.14 134.46 13.68 135.18 12.88L134.33 11.97C133.78 12.53 133.04 12.84 132.23 12.84C131.05 12.84 130.17 12.12 129.92 10.98L135.55 10.98C135.74 8.29 134.68 6.58 132.06 6.58C129.85 6.59 128.30 8.12 128.30 10.37ZM129.89 9.80C130.07 8.61 130.90 7.87 132.08 7.87C133.29 7.87 134.09 8.60 134.15 9.80ZM137.23 14.08L138.84 14.08L138.84 10.19C138.96 8.92 139.92 8.04 141.41 8.12L141.41 6.58C140.24 6.58 139.34 7.11 138.84 8.12L138.84 6.64L137.23 6.64Z"></path></g><defs data-v-fde0c5aa=""><linearGradient data-v-fde0c5aa="" gradientTransform="rotate(25)" id="3e1d38d8-bd68-4486-863c-bdd8b16c6de6" x1="0%" y1="0%" x2="100%" y2="0%"><stop data-v-fde0c5aa="" offset="0%" stop-color="#F4B052" stop-opacity="1"></stop><stop data-v-fde0c5aa="" offset="100%" stop-color="#EBF419" stop-opacity="1"></stop></linearGradient></defs><g data-v-fde0c5aa="" id="33b06e46-6c50-4179-89be-f761b23a8cec" stroke="none" fill="url(#3e1d38d8-bd68-4486-863c-bdd8b16c6de6)" transform="matrix(0.09593341378655777,0,0,0.09593341378655777,125.44099840475091,104.1633677385343)"><path d="M268.232 84.024c-2.203 0-4.031-1.789-4.031-4 0-2.21 1.75-3.999 3.953-3.999h.078c2.219 0 4 1.789 4 3.999 0 2.211-1.781 4-4 4zM244.24 83.188c-2.207 0-4.039-1.789-4.039-4s1.75-4 3.961-4h.078c2.21 0 3.999 1.789 3.999 4s-1.789 4-3.999 4zM132.257 172.01c-2.207 0-4.039-1.789-4.039-3.999 0-2.211 1.75-4 3.96-4h.078a3.997 3.997 0 0 1 3.999 4 3.995 3.995 0 0 1-3.998 3.999zM156.253 172.01c-2.207 0-4.038-1.789-4.038-3.999 0-2.211 1.75-4 3.96-4h.078c2.211 0 4 1.789 4 4a3.997 3.997 0 0 1-4 3.999zM180.25 172.01c-2.207 0-4.039-1.789-4.039-3.999 0-2.211 1.75-4 3.96-4h.078c2.21 0 4 1.789 4 4a3.997 3.997 0 0 1-3.999 3.999zM204.246 172.01c-2.207 0-4.039-1.789-4.039-3.999 0-2.211 1.75-4 3.96-4h.078a3.997 3.997 0 0 1 3.999 4 3.994 3.994 0 0 1-3.998 3.999zM228.242 172.01c-2.207 0-4.038-1.789-4.038-3.999 0-2.211 1.75-4 3.96-4h.078c2.211 0 4 1.789 4 4a3.997 3.997 0 0 1-4 3.999zM284.23 172.01c-2.203 0-4.031-1.789-4.031-3.999 0-2.211 1.75-4 3.953-4h.078a3.992 3.992 0 0 1 3.999 4 3.991 3.991 0 0 1-3.999 3.999zM308.227 172.01c-2.203 0-4.031-1.789-4.031-3.999 0-2.211 1.75-4 3.953-4h.078a3.992 3.992 0 0 1 3.999 4 3.991 3.991 0 0 1-3.999 3.999zM332.223 172.01c-2.203 0-4.03-1.789-4.03-3.999 0-2.211 1.749-4 3.952-4h.078c2.219 0 4 1.789 4 4a3.992 3.992 0 0 1-4 3.999zM356.219 172.01c-2.202 0-4.03-1.789-4.03-3.999 0-2.211 1.75-4 3.952-4h.078c2.219 0 4 1.789 4 4a3.992 3.992 0 0 1-4 3.999zM380.216 172.01c-2.203 0-4.03-1.789-4.03-3.999 0-2.211 1.749-4 3.952-4h.078a3.992 3.992 0 0 1 3.999 4 3.991 3.991 0 0 1-3.999 3.999zM224.146 391.98a3.962 3.962 0 0 1-1.668-.359c-53.125-24.434-110.464-97-110.464-171.618 0-2.211 1.789-4 3.999-4 2.211 0 4 1.789 4 4 0 71.454 54.921 140.944 105.808 164.354a3.989 3.989 0 0 1 1.96 5.297 3.986 3.986 0 0 1-3.635 2.326zM287.854 391.98a3.992 3.992 0 0 1-3.64-2.326 3.992 3.992 0 0 1 1.96-5.297c50.876-23.41 105.797-92.908 105.797-164.354 0-2.211 1.789-4 3.999-4 2.211 0 4 1.789 4 4 0 74.618-57.328 147.176-110.452 171.618a3.944 3.944 0 0 1-1.664.359zM499.963 511.963H12.036a3.992 3.992 0 0 1-3.999-3.998v-23.998c0-34.322 17.782-47.477 50.594-59.732 4.46-1.664 9.905-3.727 15.939-6.086a4.008 4.008 0 0 1 5.179 2.281 3.992 3.992 0 0 1-2.273 5.172 1032.156 1032.156 0 0 1-16.048 6.123c-30.753 11.492-45.392 22.24-45.392 52.242v19.998h479.928v-19.998c0-30.002-14.639-40.75-45.392-52.242-4.491-1.67-9.975-3.748-16.045-6.123a3.998 3.998 0 0 1-2.272-5.172 4.008 4.008 0 0 1 5.179-2.281 1113.207 1113.207 0 0 0 15.936 6.086c32.814 12.256 50.594 25.41 50.594 59.732v23.998a3.994 3.994 0 0 1-4.001 3.998zM236.003 160.012H116.021a3.997 3.997 0 0 1-3.999-3.999c0-2.211 1.789-4 3.999-4h119.982a3.997 3.997 0 0 1 3.999 4 3.997 3.997 0 0 1-3.999 3.999zM395.979 160.012H275.997a3.997 3.997 0 0 1-3.999-3.999c0-2.211 1.788-4 3.999-4h119.981c2.211 0 4 1.789 4 4a3.997 3.997 0 0 1-3.999 3.999z"></path><path d="M419.976 495.965c-34.206 0-75.989-27.682-75.989-59.99 0-2.219 1.789-4 4-4s3.999 1.781 3.999 4c0 27.512 38.025 51.992 67.99 51.992a3.992 3.992 0 0 1 3.999 4 4 4 0 0 1-3.999 3.998z"></path><path d="M347.986 439.975c-2.211 0-4-1.797-4-4v-79.988a4 4 0 0 1 7.999 0v79.988c0 2.203-1.788 4-3.999 4zM116.021 160.012a3.997 3.997 0 0 1-3.999-3.999c0-45.985-22.965-77.282-23.2-77.594a3.996 3.996 0 0 1 .809-5.593c1.769-1.316 4.273-.965 5.593.8 1.011 1.348 24.797 33.62 24.797 82.387 0 2.21-1.79 3.999-4 3.999zM395.979 160.012a3.997 3.997 0 0 1-3.999-3.999c0-48.767 23.786-81.039 24.793-82.387a4 4 0 0 1 5.593-.8 3.992 3.992 0 0 1 .812 5.593c-.234.312-23.199 31.609-23.199 77.594 0 2.21-1.79 3.999-4 3.999zM116.013 224.002a3.997 3.997 0 0 1-3.999-3.999v-23.997c0-2.21 1.789-4 3.999-4 2.211 0 4 1.789 4 4v23.997a3.997 3.997 0 0 1-4 3.999zM395.979 224.002a3.997 3.997 0 0 1-3.999-3.999v-23.997c0-2.21 1.789-4 3.999-4 2.211 0 4 1.789 4 4v23.997a3.997 3.997 0 0 1-4 3.999zM172.009 144.015a4.007 4.007 0 0 1-3.926-3.246l-19.196-99.884a4.004 4.004 0 0 1 3.176-4.683 4.01 4.01 0 0 1 4.683 3.175l19.196 99.883a4.003 4.003 0 0 1-3.933 4.755zM228 144.015a3.996 3.996 0 0 1-3.987-3.781l-6.401-117.795a4.006 4.006 0 0 1 3.776-4.214c2.145-.137 4.093 1.574 4.21 3.776L232 139.796a4.006 4.006 0 0 1-3.777 4.214c-.075.005-.149.005-.223.005zM283.996 144.015c-.07 0-.141 0-.219-.008a3.996 3.996 0 0 1-3.773-4.21l6.405-117.795c.117-2.203 2.055-4.011 4.21-3.772a3.996 3.996 0 0 1 3.773 4.21l-6.405 117.795a4.003 4.003 0 0 1-3.991 3.78zM339.987 144.015a4 4 0 0 1-3.929-4.749l19.2-100.477a3.992 3.992 0 0 1 4.679-3.18 4 4 0 0 1 3.18 4.679l-19.201 100.477a3.997 3.997 0 0 1-3.929 3.25zM395.963 184.009h-279.95c-2.21 0-3.999-1.789-3.999-4s1.789-3.999 3.999-3.999h279.95c2.211 0 4 1.788 4 3.999s-1.789 4-4 4z"></path><path d="M116.021 184.009a3.997 3.997 0 0 1-3.999-4v-23.996c0-2.211 1.789-4 3.999-4 2.211 0 4 1.789 4 4v23.996c0 2.211-1.79 4-4 4zM395.963 184.009a3.997 3.997 0 0 1-3.999-4v-23.996c0-2.211 1.789-4 3.999-4 2.211 0 4 1.789 4 4v23.996c0 2.211-1.789 4-4 4zM248.001 160.012a3.997 3.997 0 0 1-3.999-3.999v-35.636a3.997 3.997 0 0 1 3.999-3.999c2.211 0 4 1.789 4 3.999v35.636a3.998 3.998 0 0 1-4 3.999zM263.999 160.012c-2.211 0-4-1.789-4-3.999v-35.636a3.997 3.997 0 0 1 4-3.999 3.997 3.997 0 0 1 3.999 3.999v35.636a3.997 3.997 0 0 1-3.999 3.999z"></path><path d="M256 168.011c-6.616 0-11.998-5.382-11.998-11.998 0-2.211 1.789-4 3.999-4 2.211 0 4 1.789 4 4 0 2.206 1.792 3.999 4 3.999s3.999-1.793 3.999-3.999c0-2.211 1.789-4 4-4a3.997 3.997 0 0 1 3.999 4c-.001 6.616-5.383 11.998-11.999 11.998zM248.216 124.572a4 4 0 0 1-3.999-3.964c-.129-1.98-3.344-11.396-5.695-18.278-4.429-12.986-6.519-19.419-6.519-22.306 0-8.971 10.542-15.997 23.997-15.997 13.451 0 23.996 7.026 23.996 15.997 0 2.875-2.078 9.366-6.483 22.474-2.272 6.772-5.39 16.048-5.515 17.942-.148 2.152-2.047 3.867-4.128 3.832-2.156-.07-3.871-1.738-3.871-3.894 0-2.515 1.719-7.877 5.937-20.427 2.375-7.088 5.984-17.806 6.062-19.946 0-3.757-6.844-7.979-15.998-7.979-9.155 0-15.998 4.222-15.998 7.999.082 2.113 3.699 12.709 6.093 19.72 4.253 12.471 6.12 18.212 6.12 20.829a3.996 3.996 0 0 1-3.999 3.998zM98.121 144.015H74.77c-2.211 0-4-1.789-4-4a3.997 3.997 0 0 1 4-3.999h23.352a4 4 0 1 1-.001 7.999zM436.848 144.015h-23.355c-2.211 0-4-1.789-4-4a3.997 3.997 0 0 1 4-3.999h23.355c2.211 0 4 1.789 4 3.999 0 2.211-1.789 4-4 4z"></path><path d="M92.024 495.965a4 4 0 0 1-3.999-3.998v-71.99c0-40.322-20.532-53.805-40.389-66.842-14.354-9.428-27.918-18.324-31.522-36.361-8.116-40.573 61.162-249.15 64.119-258.012a3.975 3.975 0 0 1 1.335-1.89C82.299 56.301 155.8.037 256 .037c2.211 0 3.999 1.788 3.999 3.999s-1.788 4-3.999 4c-91.404 0-159.808 48-168.572 54.441-5.714 17.283-70.873 215.725-63.471 252.727 2.953 14.756 14.591 22.396 28.07 31.246 20.622 13.537 43.998 28.887 43.998 73.527v71.99a4.003 4.003 0 0 1-4.001 3.998z"></path><path d="M92.024 495.965a4 4 0 0 1 0-7.998c29.968 0 67.99-24.48 67.99-51.992 0-2.219 1.789-4 4-4s3.999 1.781 3.999 4c0 32.308-41.783 59.99-75.989 59.99z"></path><path d="M164.014 439.975c-2.211 0-4-1.797-4-4v-79.988a4 4 0 0 1 7.999 0v79.988c0 2.203-1.788 4-3.999 4zM100.023 200.006h-41.49c-2.21 0-3.999-1.789-3.999-4s1.789-4 3.999-4h41.49c2.21 0 3.999 1.789 3.999 4s-1.788 4-3.999 4zM103.44 255.998H44.242c-2.21 0-3.999-1.789-3.999-4s1.789-4 3.999-4h59.198c2.211 0 4 1.789 4 4s-1.789 4-4 4zM125.418 311.994H35.42c-2.211 0-4-1.797-4-4 0-2.219 1.789-4 4-4h89.998a3.992 3.992 0 0 1 3.999 4c0 2.203-1.789 4-3.999 4zM148.016 367.984H86.424c-2.211 0-4-1.797-4-3.998 0-2.219 1.789-4 4-4h61.592c2.21 0 4 1.781 4 4a4.002 4.002 0 0 1-4 3.998zM148.016 423.977h-39.994c-2.21 0-4-1.797-4-4a3.99 3.99 0 0 1 4-3.998h39.994c2.21 0 4 1.779 4 3.998 0 2.203-1.789 4-4 4zM419.976 495.965c-2.211 0-4-1.795-4-3.998v-71.99c0-44.641 23.372-59.99 43.993-73.527 13.482-8.85 25.122-16.49 28.074-31.246 7.405-37.002-57.757-235.44-63.475-252.727C415.796 56.036 347.291 8.035 256 8.035c-2.211 0-4-1.789-4-4s1.789-3.999 4-3.999c100.203 0 173.7 56.265 174.427 56.835a3.99 3.99 0 0 1 1.344 1.89c2.952 8.862 72.231 217.439 64.115 258.012-3.608 18.037-17.169 26.934-31.526 36.361-19.856 13.037-40.385 26.52-40.385 66.842v71.99a4.001 4.001 0 0 1-3.999 3.999z"></path><path d="M419.976 495.965c-34.206 0-75.989-27.682-75.989-59.99 0-2.219 1.789-4 4-4s3.999 1.781 3.999 4c0 27.512 38.025 51.992 67.99 51.992a3.992 3.992 0 0 1 3.999 4 4 4 0 0 1-3.999 3.998z"></path><path d="M347.986 439.975c-2.211 0-4-1.797-4-4v-79.988a4 4 0 0 1 7.999 0v79.988c0 2.203-1.788 4-3.999 4zM453.463 200.006h-41.486c-2.211 0-4-1.789-4-4s1.789-4 4-4h41.486c2.21 0 3.999 1.789 3.999 4s-1.789 4-3.999 4zM467.758 255.998h-59.195c-2.21 0-3.999-1.789-3.999-4s1.789-4 3.999-4h59.195c2.21 0 3.999 1.789 3.999 4s-1.789 4-3.999 4zM476.584 311.994h-90.002c-2.211 0-4-1.797-4-4 0-2.219 1.789-4 4-4h90.002c2.211 0 4 1.781 4 4 0 2.203-1.789 4-4 4z"></path><g><path d="M425.576 367.984h-61.593a4.002 4.002 0 0 1-3.999-3.998c0-2.219 1.789-4 3.999-4h61.593a3.992 3.992 0 0 1 3.999 4 4 4 0 0 1-3.999 3.998z"></path></g><g><path d="M403.978 423.977h-39.994a4.003 4.003 0 0 1-3.999-4 3.99 3.99 0 0 1 3.999-3.998h39.994a3.99 3.99 0 0 1 3.999 3.998c0 2.203-1.789 4-3.999 4z"></path></g><g><path d="M275.997 391.98h-39.994c-2.211 0-4-1.795-4-3.998 0-2.219 1.789-4 4-4h39.994a4 4 0 0 1 0 7.998z"></path></g><g><path d="M243.998 471.969a4.008 4.008 0 0 1-3.977-3.607l-7.999-79.988a3.998 3.998 0 0 1 3.582-4.375c2.277-.172 4.159 1.391 4.378 3.578l7.999 79.988a4 4 0 0 1-3.581 4.381c-.136.007-.269.023-.402.023z"></path></g><g><path d="M267.998 471.969c-.125 0-.266-.016-.398-.023a4.008 4.008 0 0 1-3.585-4.381l7.999-79.988c.227-2.188 2.202-3.75 4.382-3.578a4.004 4.004 0 0 1 3.585 4.375l-7.998 79.988a4.02 4.02 0 0 1-3.985 3.607z"></path></g><g><path d="M256 487.967c-11.557 0-23.997-3.758-23.997-11.998 0-8.248 12.44-11.998 23.997-11.998 11.561 0 23.996 3.75 23.996 11.998 0 8.24-12.435 11.998-23.996 11.998zm0-15.998c-9.94 0-15.498 3.016-16.033 4.211.535.773 6.093 3.789 16.033 3.789 9.936 0 15.498-3.016 16.029-4.219-.531-.766-6.093-3.781-16.029-3.781z"></path></g><g><path d="M265.6 415.979h-19.146a4.003 4.003 0 0 1-3.999-4c0-2.219 1.789-4 3.999-4H265.6c2.211 0 4 1.781 4 4 0 2.203-1.789 4-4 4z"></path></g><g><path d="M262.397 447.973h-12.795c-2.211 0-4-1.797-4-4a3.992 3.992 0 0 1 4-3.998h12.795a3.992 3.992 0 0 1 3.999 3.998c0 2.203-1.789 4-3.999 4z"></path></g><g><path d="M225.172 443.832c-.351 0-.71-.047-1.062-.141-17.107-4.701-33.265-13.363-46.728-25.059a3.999 3.999 0 0 1 5.249-6.037c12.564 10.912 27.641 19.004 43.595 23.387a3.997 3.997 0 0 1 2.796 4.914 3.982 3.982 0 0 1-3.85 2.936z"></path></g><g><path d="M286.886 443.801a3.996 3.996 0 0 1-3.858-2.936 4.01 4.01 0 0 1 2.796-4.914c15.951-4.383 31.003-12.459 43.556-23.355 1.656-1.453 4.188-1.273 5.641.398a3.996 3.996 0 0 1-.406 5.639c-13.436 11.672-29.574 20.326-46.665 25.027a4.243 4.243 0 0 1-1.064.141z"></path></g><g><path d="M223.419 426.555c-.434 0-.871-.078-1.305-.219-17.466-6.023-33.081-16.662-45.157-30.762a3.995 3.995 0 0 1 .438-5.639 3.99 3.99 0 0 1 5.64.438c11.15 13.021 25.566 22.84 41.689 28.4a3.996 3.996 0 0 1 2.476 5.078 4.006 4.006 0 0 1-3.781 2.704z"></path></g><g><path d="M288.62 426.523a3.992 3.992 0 0 1-3.78-2.688 4.01 4.01 0 0 1 2.476-5.094c16.114-5.561 30.519-15.371 41.65-28.369 1.444-1.672 3.968-1.875 5.64-.438a3.996 3.996 0 0 1 .438 5.639c-12.053 14.076-27.66 24.715-45.118 30.73-.431.158-.868.22-1.306.22z"></path></g></g><!----></svg>