<svg data-v-423bf9ae="" xmlns="http://www.w3.org/2000/svg" viewBox="0 0 635.2967850858811 60" class="font"><!----><!----><!----><g data-v-423bf9ae="" id="8f9c1818-4625-4017-bb34-0cefab02f5f9" fill="black" transform="matrix(4.507888663291858,0,0,4.507888663291858,-2.163790801529103,-15.912846137192787)"><path d="M0.48 9.17C0.48 11.98 2.70 14.15 5.57 14.15C6.96 14.15 8.37 13.52 9.37 12.54L8.39 11.45C7.64 12.17 6.64 12.61 5.66 12.61C3.70 12.61 2.16 11.09 2.16 9.16C2.16 7.22 3.70 5.71 5.66 5.71C6.65 5.71 7.67 6.19 8.39 6.96L9.35 5.75C8.40 4.82 7.01 4.24 5.63 4.24C2.73 4.24 0.48 6.38 0.48 9.17ZM10.81 4.51C10.81 5.07 11.21 5.47 11.75 5.47C12.28 5.47 12.68 5.07 12.68 4.51C12.68 3.93 12.28 3.53 11.75 3.53C11.21 3.53 10.81 3.93 10.81 4.51ZM10.95 14.08L12.54 14.08L12.54 6.64L10.95 6.64ZM13.75 6.64L16.63 14.08L18.30 14.08L21.15 6.64L19.54 6.64L17.50 12.50L15.43 6.64ZM22.13 4.51C22.13 5.07 22.54 5.47 23.07 5.47C23.60 5.47 24.01 5.07 24.01 4.51C24.01 3.93 23.60 3.53 23.07 3.53C22.54 3.53 22.13 3.93 22.13 4.51ZM22.27 14.08L23.87 14.08L23.87 6.64L22.27 6.64ZM26.32 14.08L27.93 14.08L27.93 3.70L26.32 3.70ZM30.24 4.51C30.24 5.07 30.65 5.47 31.18 5.47C31.71 5.47 32.12 5.07 32.12 4.51C32.12 3.93 31.71 3.53 31.18 3.53C30.65 3.53 30.24 3.93 30.24 4.51ZM30.38 14.08L31.98 14.08L31.98 6.64L30.38 6.64ZM33.80 14.08L40.17 14.10L40.17 12.78L35.78 12.77L40.04 7.73L40.04 6.65L33.92 6.64L33.92 7.95L38.05 7.95L33.80 12.99ZM41.26 11.84C41.26 13.16 42.27 14.15 43.88 14.15C44.95 14.15 45.81 13.83 46.34 13.17L46.34 14.08L47.92 14.08L47.91 9.20C47.89 7.56 46.82 6.58 44.90 6.58C43.48 6.58 42.73 6.90 41.69 7.52L42.35 8.64C43.09 8.13 43.83 7.88 44.55 7.88C45.72 7.88 46.33 8.44 46.33 9.38L46.33 9.60L44.07 9.60C42.28 9.62 41.26 10.49 41.26 11.84ZM42.77 11.77C42.77 11.06 43.26 10.78 44.31 10.78L46.33 10.78L46.33 11.47C46.24 12.28 45.36 12.88 44.21 12.88C43.32 12.88 42.77 12.45 42.77 11.77ZM49.32 8.12L50.37 8.12L50.37 11.98C50.37 13.51 51.34 14.15 52.46 14.15C53.09 14.15 53.70 13.96 54.29 13.61L53.89 12.38C53.45 12.59 53.10 12.70 52.77 12.70C52.26 12.70 51.97 12.46 51.97 11.69L51.97 8.12L54.17 8.12L54.17 6.92L51.97 6.92L51.97 4.87L50.37 4.87L50.37 6.92L49.32 6.92ZM55.64 4.51C55.64 5.07 56.04 5.47 56.57 5.47C57.11 5.47 57.51 5.07 57.51 4.51C57.51 3.93 57.11 3.53 56.57 3.53C56.04 3.53 55.64 3.93 55.64 4.51ZM55.78 14.08L57.37 14.08L57.37 6.64L55.78 6.64ZM59.05 10.36C59.05 12.60 60.63 14.14 62.94 14.14C65.24 14.14 66.82 12.60 66.82 10.36C66.82 8.11 65.24 6.58 62.94 6.58C60.63 6.58 59.05 8.11 59.05 10.36ZM60.66 10.37C60.66 8.95 61.60 7.97 62.94 7.97C64.27 7.97 65.21 8.95 65.21 10.37C65.21 11.82 64.27 12.80 62.94 12.80C61.60 12.80 60.66 11.82 60.66 10.37ZM68.50 14.08L70.11 14.08L70.11 10.12C70.22 8.96 70.99 8.11 72.23 8.09C73.35 8.09 74.02 8.78 74.02 9.90L74.02 14.08L75.63 14.08L75.63 9.45C75.63 7.67 74.59 6.58 72.86 6.58C71.60 6.58 70.64 7.03 70.11 8.06L70.11 6.64L68.50 6.64ZM81.49 14.08L83.05 14.08L83.05 6.76L86.14 13.06L87.22 13.06L90.31 6.76L90.33 14.08L91.85 14.08L91.85 4.28L89.91 4.28L86.69 10.79L83.45 4.28L81.49 4.28ZM93.73 11.84C93.73 13.16 94.74 14.15 96.35 14.15C97.43 14.15 98.28 13.83 98.81 13.17L98.81 14.08L100.39 14.08L100.38 9.20C100.37 7.56 99.29 6.58 97.37 6.58C95.96 6.58 95.20 6.90 94.16 7.52L94.82 8.64C95.56 8.13 96.31 7.88 97.02 7.88C98.20 7.88 98.80 8.44 98.80 9.38L98.80 9.60L96.54 9.60C94.75 9.62 93.73 10.49 93.73 11.84ZM95.24 11.77C95.24 11.06 95.73 10.78 96.78 10.78L98.80 10.78L98.80 11.47C98.71 12.28 97.83 12.88 96.68 12.88C95.79 12.88 95.24 12.45 95.24 11.77ZM102.55 14.08L104.16 14.08L104.16 10.12C104.27 8.96 105.04 8.11 106.27 8.09C107.39 8.09 108.07 8.78 108.07 9.90L108.07 14.08L109.68 14.08L109.68 9.45C109.68 7.67 108.64 6.58 106.90 6.58C105.64 6.58 104.69 7.03 104.16 8.06L104.16 6.64L102.55 6.64ZM111.22 11.84C111.22 13.16 112.22 14.15 113.83 14.15C114.91 14.15 115.77 13.83 116.30 13.17L116.30 14.08L117.88 14.08L117.87 9.20C117.85 7.56 116.77 6.58 114.86 6.58C113.44 6.58 112.69 6.90 111.65 7.52L112.31 8.64C113.05 8.13 113.79 7.88 114.51 7.88C115.68 7.88 116.28 8.44 116.28 9.38L116.28 9.60L114.03 9.60C112.24 9.62 111.22 10.49 111.22 11.84ZM112.73 11.77C112.73 11.06 113.22 10.78 114.27 10.78L116.28 10.78L116.28 11.47C116.20 12.28 115.32 12.88 114.17 12.88C113.27 12.88 112.73 12.45 112.73 11.77ZM119.34 10.12C119.34 12.26 120.68 13.72 122.70 13.72C123.82 13.72 124.66 13.27 125.16 12.46L125.16 13.40C125.16 14.69 124.24 15.51 122.82 15.51C121.91 15.51 121.18 15.22 120.48 14.70L119.80 15.86C120.71 16.48 121.73 16.84 122.89 16.84C125.23 16.84 126.76 15.50 126.76 13.36L126.76 6.64L125.16 6.64L125.16 7.84C124.64 7.03 123.79 6.57 122.64 6.58C120.67 6.59 119.34 8.02 119.34 10.12ZM120.85 10.16C120.86 8.83 121.74 7.88 123.02 7.88C124.28 7.88 125.16 8.82 125.16 10.16C125.16 11.51 124.28 12.46 123.02 12.46C121.73 12.46 120.86 11.51 120.85 10.16ZM128.30 10.37C128.30 12.61 129.81 14.14 132.10 14.14C133.39 14.14 134.46 13.68 135.18 12.88L134.33 11.97C133.78 12.53 133.04 12.84 132.23 12.84C131.05 12.84 130.17 12.12 129.92 10.98L135.55 10.98C135.74 8.29 134.68 6.58 132.06 6.58C129.85 6.59 128.30 8.12 128.30 10.37ZM129.89 9.80C130.07 8.61 130.90 7.87 132.08 7.87C133.29 7.87 134.09 8.60 134.15 9.80ZM137.23 14.08L138.84 14.08L138.84 10.19C138.96 8.92 139.92 8.04 141.41 8.12L141.41 6.58C140.24 6.58 139.34 7.11 138.84 8.12L138.84 6.64L137.23 6.64Z"></path></g><!----><!----></svg>